<svg xmlns="http://www.w3.org/2000/svg" viewBox="0 0 357.90 308.94">
  <path d="M 357.90 9.73L 354.66 9.84L 351.46 10.18L 348.32 10.73L 345.24 11.51L 342.25 12.49L 339.36 13.67L 336.56 15.03L 333.86 16.56L 331.28 18.26L 328.79 20.09L 326.42 22.07L 324.14 24.17L 321.95 26.38L 319.86 28.70L 317.85 31.13L 315.91 33.65L 314.05 36.27L 312.26 38.97L 310.53 41.77L 308.86 44.64L 307.24 47.60L 305.67 50.63L 304.15 53.74L 302.68 56.92L 301.25 60.17L 299.85 63.49L 298.49 66.87L 297.17 70.32L 295.88 73.82L 294.62 77.39L 293.39 81.01L 292.18 84.68L 291.00 88.40L 289.84 92.17L 288.71 95.99L 287.59 99.84L 286.49 103.73L 285.42 107.66L 284.35 111.62L 283.31 115.61L 282.27 119.63L 281.25 123.67L 280.24 127.73L 279.24 131.80L 278.24 135.89L 277.26 140.00L 276.28 144.10L 275.30 148.22L 274.33 152.33L 273.36 156.44L 272.39 160.55L 271.42 164.65L 270.45 168.73L 269.48 172.80L 268.51 176.86L 267.53 180.89L 266.55 184.89L 265.56 188.86L 264.56 192.81L 263.55 196.71L 262.54 200.58L 261.51 204.41L 260.47 208.18L 259.42 211.91L 258.36 215.58L 257.28 219.20L 256.19 222.76L 255.08 226.25L 253.96 229.67L 252.82 233.02L 251.66 236.29L 250.49 239.48L 249.29 242.59L 248.08 245.61L 246.85 248.54L 245.61 251.37L 244.34 254.10L 243.06 256.72L 241.76 259.24L 240.44 261.64L 239.11 263.93L 237.77 266.09L 236.42 268.13L 235.06 270.05L 233.69 271.83L 232.32 273.48L 230.96 275.00L 229.59 276.38L 228.24 277.63L 226.89 278.74L 225.56 279.73L 224.24 280.60L 222.93 281.34L 221.63 281.98L 220.32 282.51L 219.00 282.94L 217.67 283.28L 216.29 283.52L 214.86 283.67L 213.36 283.72L 211.56 283.67L 209.86 283.50L 208.25 283.24L 206.72 282.89L 205.26 282.44L 203.85 281.90L 202.47 281.27L 201.12 280.53L 199.78 279.69L 198.45 278.74L 197.12 277.66L 195.80 276.47L 194.48 275.14L 193.17 273.68L 191.86 272.09L 190.56 270.37L 189.27 268.52L 186.73 264.43L 185.48 262.20L 184.25 259.85L 183.03 257.38L 181.83 254.80L 180.65 252.12L 179.49 249.33L 178.35 246.44L 177.22 243.45L 176.11 240.38L 175.01 237.22L 173.92 233.97L 172.85 230.65L 171.79 227.25L 170.73 223.78L 169.68 220.24L 168.64 216.65L 167.60 212.99L 166.56 209.27L 165.52 205.50L 164.48 201.69L 163.43 197.83L 162.37 193.92L 161.31 189.98L 160.24 186.01L 159.15 182.00L 158.04 177.97L 156.92 173.91L 155.78 169.83L 154.61 165.73L 153.42 161.61L 152.21 157.49L 150.96 153.36L 149.68 149.22L 148.37 145.08L 147.02 140.94L 145.63 136.80L 144.20 132.68L 142.73 128.56L 141.21 124.46L 139.64 120.37L 138.02 116.31L 136.34 112.27L 134.60 108.25L 132.81 104.27L 130.95 100.31L 129.03 96.40L 127.04 92.52L 124.97 88.69L 122.83 84.90L 120.61 81.16L 118.32 77.48L 115.94 73.85L 113.47 70.29L 110.91 66.78L 108.26 63.35L 105.51 59.99L 102.67 56.71L 99.72 53.51L 96.67 50.40L 93.51 47.38L 90.25 44.45L 86.88 41.63L 83.39 38.91L 79.79 36.30L 76.07 33.81L 72.24 31.44L 68.29 29.19L 64.23 27.08L 60.04 25.10L 55.74 23.26L 51.32 21.57L 46.78 20.02L 42.13 18.62L 37.35 17.38L 32.46 16.30L 27.45 15.37L 22.32 14.61L 17.07 14.01L 11.70 13.59L 6.21 13.33L 0.59 13.24L 0.00 13.24L 0.00 38.46L 0.59 38.46L 5.42 38.53L 10.11 38.76L 14.65 39.12L 19.05 39.62L 23.31 40.25L 27.44 41.01L 31.45 41.90L 35.33 42.91L 39.09 44.04L 42.73 45.28L 46.27 46.63L 49.69 48.10L 53.02 49.67L 56.24 51.35L 59.37 53.13L 62.41 55.01L 65.36 56.99L 68.23 59.07L 71.02 61.24L 73.73 63.51L 76.37 65.87L 78.94 68.33L 81.43 70.88L 83.86 73.51L 86.22 76.23L 88.51 79.04L 90.74 81.93L 92.91 84.90L 95.02 87.95L 97.07 91.07L 99.07 94.27L 101.00 97.53L 102.89 100.86L 104.71 104.26L 106.49 107.72L 108.22 111.24L 109.90 114.81L 111.53 118.43L 113.11 122.10L 114.66 125.81L 116.16 129.57L 117.61 133.36L 119.03 137.19L 120.42 141.05L 121.76 144.94L 123.08 148.86L 124.36 152.79L 125.61 156.74L 126.84 160.71L 128.04 164.69L 129.21 168.68L 130.37 172.67L 131.50 176.67L 132.62 180.66L 133.72 184.65L 134.81 188.63L 135.89 192.60L 136.96 196.56L 138.03 200.50L 139.09 204.42L 140.14 208.31L 141.20 212.18L 142.26 216.02L 143.33 219.83L 144.40 223.60L 145.48 227.34L 146.58 231.03L 147.69 234.68L 148.82 238.29L 149.96 241.84L 151.14 245.35L 152.34 248.80L 153.57 252.20L 154.83 255.54L 156.13 258.81L 157.46 262.03L 158.85 265.17L 160.28 268.26L 161.76 271.27L 163.30 274.21L 164.90 277.07L 166.57 279.85L 168.32 282.56L 170.14 285.18L 172.06 287.71L 174.06 290.14L 176.17 292.47L 178.38 294.70L 180.70 296.80L 183.14 298.78L 185.70 300.61L 188.37 302.30L 191.16 303.81L 194.07 305.15L 197.08 306.30L 200.19 307.25L 203.38 307.99L 206.64 308.52L 209.97 308.84L 213.36 308.94L 216.61 308.83L 219.81 308.49L 222.95 307.94L 226.02 307.16L 229.01 306.18L 231.91 305.01L 234.71 303.64L 237.40 302.11L 239.99 300.42L 242.47 298.58L 244.85 296.60L 247.13 294.51L 249.31 292.29L 251.41 289.97L 253.42 287.54L 255.35 285.02L 257.21 282.40L 259.01 279.70L 260.74 276.91L 262.41 274.03L 264.03 271.08L 265.59 268.04L 267.11 264.94L 268.59 261.76L 270.02 258.50L 271.41 255.19L 272.77 251.80L 274.10 248.35L 275.39 244.85L 276.65 241.28L 277.88 237.66L 279.09 233.99L 280.27 230.27L 281.42 226.50L 282.56 222.69L 283.67 218.83L 284.77 214.94L 285.85 211.01L 286.91 207.05L 287.96 203.06L 288.99 199.04L 290.02 195.00L 291.03 190.95L 292.03 186.87L 293.02 182.78L 294.01 178.68L 294.99 174.57L 295.96 170.46L 296.94 166.34L 297.91 162.23L 298.87 158.12L 299.84 154.02L 300.81 149.94L 301.78 145.87L 302.76 141.82L 303.74 137.79L 304.72 133.78L 305.71 129.81L 306.71 125.87L 307.71 121.96L 308.73 118.09L 309.76 114.27L 310.79 110.49L 311.84 106.76L 312.91 103.09L 313.98 99.47L 315.07 95.92L 316.18 92.43L 317.30 89.00L 318.44 85.65L 319.60 82.38L 320.78 79.19L 321.97 76.08L 323.18 73.06L 324.41 70.13L 325.66 67.30L 326.93 64.57L 328.21 61.95L 329.51 59.43L 330.82 57.03L 332.15 54.74L 333.50 52.58L 334.85 50.54L 336.21 48.62L 337.58 46.84L 338.94 45.19L 340.31 43.67L 341.67 42.29L 343.03 41.05L 344.37 39.93L 345.70 38.94L 347.02 38.08L 348.34 37.33L 349.64 36.69L 350.94 36.16L 352.26 35.73L 353.60 35.40L 354.98 35.15L 356.41 35.00L 357.90 34.95M 357.90 208.74L 357.19 208.74L 356.46 208.74L 355.71 208.74L 354.94 208.74L 354.16 208.74L 353.35 208.74L 352.54 208.74L 351.70 208.74L 350.85 208.74L 349.99 208.74L 349.11 208.74L 348.21 208.73L 347.30 208.73L 346.38 208.72L 345.44 208.72L 344.49 208.71L 343.52 208.70L 342.55 208.68L 341.56 208.67L 340.56 208.65L 339.54 208.63L 339.54 208.63L 339.54 208.63L 338.52 208.61L 337.49 208.59L 336.44 208.56L 335.39 208.53L 334.33 208.50L 333.26 208.46L 332.18 208.42L 331.09 208.38L 330.00 208.33L 328.90 208.28L 327.79 208.28L 327.79 208.28L 327.79 208.28L 327.79 208.28L 328.90 208.28L 327.79 208.23L 326.68 208.17L 325.56 208.11L 324.44 208.04L 323.31 207.97L 322.18 207.90L 321.04 207.82L 319.90 207.73L 318.76 207.65L 317.62 207.55L 316.47 207.45L 315.32 207.35L 314.18 207.24L 313.03 207.12L 311.88 207.00L 310.73 206.88L 309.59 206.75L 308.44 206.61L 307.30 206.46L 306.16 206.31L 305.03 206.31L 305.03 206.31L 305.03 206.31L 305.03 206.31L 306.16 206.31L 305.03 206.16L 303.90 206.00L 302.77 205.83L 301.65 205.65L 300.53 205.47L 299.42 205.28L 298.31 205.09L 297.21 204.88L 296.12 204.67L 295.04 204.46L 293.96 204.24L 292.89 204.01L 291.84 203.77L 290.79 203.52L 289.76 203.27L 288.73 203.01L 287.72 202.75L 286.72 202.48L 285.73 202.20L 284.75 201.91L 283.79 201.62L 282.85 201.31L 281.91 201.01L 281.00 200.69L 280.10 200.37L 279.22 200.04L 278.35 199.71L 277.50 199.37L 276.67 199.02L 275.86 198.67L 275.07 198.31L 274.30 197.94L 273.55 197.57L 272.82 197.20L 272.11 196.82L 271.42 196.43L 270.76 196.05L 270.12 195.66L 269.50 195.26L 268.90 194.86L 268.33 194.46L 267.78 194.06L 267.25 193.66L 266.75 193.25L 266.27 192.85L 265.82 192.44L 265.38 192.04L 264.97 191.63L 264.58 191.23L 263.25 189.75L 261.97 188.24L 260.73 186.69L 259.54 185.09L 258.39 183.46L 257.29 181.79L 256.22 180.08L 255.19 178.33L 254.19 176.53L 253.23 174.70L 252.31 172.83L 251.41 170.92L 250.55 168.97L 249.71 166.98L 248.91 164.96L 248.13 162.90L 247.37 160.80L 246.64 158.67L 245.93 156.51L 245.25 154.31L 244.58 152.09L 243.93 149.84L 243.30 147.55L 242.68 145.24L 242.07 142.91L 241.48 140.55L 240.89 138.17L 240.31 135.77L 239.74 133.34L 239.17 130.90L 238.60 128.44L 238.03 125.97L 237.46 123.47L 236.88 120.97L 236.30 118.45L 235.71 115.92L 235.71 115.92L 235.71 115.92L 235.71 115.92L 236.30 118.45L 235.71 115.92L 235.11 113.38L 234.49 110.83L 233.86 108.27L 233.21 105.70L 232.54 103.13L 231.85 100.56L 231.13 97.98L 230.39 95.40L 229.62 92.81L 228.81 90.23L 227.97 87.65L 227.09 85.07L 226.17 82.50L 225.21 79.93L 224.20 77.37L 223.15 74.81L 222.04 72.27L 220.88 69.74L 219.66 67.22L 218.39 64.71L 217.05 62.23L 215.65 59.76L 214.19 57.31L 212.65 54.89L 211.04 52.49L 209.36 50.11L 207.60 47.77L 205.77 45.46L 203.85 43.19L 201.86 40.95L 199.78 38.76L 197.61 36.61L 195.36 34.50L 193.02 32.44L 190.60 30.43L 188.08 28.47L 185.48 26.57L 182.78 24.72L 180.00 22.93L 177.12 21.20L 174.14 19.53L 171.08 17.93L 167.92 16.38L 164.66 14.90L 161.30 13.49L 157.85 12.14L 154.30 10.86L 150.65 9.65L 146.89 8.51L 143.03 7.43L 139.07 6.43L 135.00 5.50L 130.82 4.63L 126.53 3.84L 122.12 3.12L 117.60 2.47L 112.97 1.90L 108.21 1.40L 103.34 0.98L 98.34 0.63L 93.21 0.35L 87.96 0.16L 82.57 0.04L 77.06 0.00L 0.00 0.00L 0.00 26.60L 77.06 26.60L 82.19 26.64L 87.17 26.75L 92.01 26.93L 96.70 27.18L 101.26 27.50L 105.67 27.88L 109.95 28.33L 114.09 28.84L 118.10 29.41L 121.97 30.05L 125.72 30.74L 129.34 31.49L 132.83 32.29L 136.20 33.14L 139.45 34.05L 142.59 35.00L 145.60 36.00L 148.51 37.05L 151.31 38.14L 154.00 39.27L 156.58 40.45L 159.07 41.66L 161.46 42.91L 163.75 44.20L 165.96 45.53L 168.08 46.89L 170.11 48.28L 172.06 49.71L 173.94 51.17L 175.74 52.66L 177.47 54.19L 179.14 55.75L 180.74 57.34L 182.28 58.96L 183.76 60.62L 185.18 62.31L 186.55 64.03L 187.87 65.79L 189.14 67.58L 190.36 69.41L 191.54 71.26L 192.67 73.15L 193.77 75.08L 194.82 77.04L 195.83 79.03L 196.81 81.05L 197.75 83.11L 198.65 85.19L 199.53 87.31L 200.37 89.45L 201.19 91.63L 201.97 93.83L 202.73 96.06L 203.47 98.31L 204.18 100.59L 204.18 100.59L 204.18 100.59L 204.18 100.59L 203.47 98.31L 204.18 100.59L 204.87 102.89L 205.54 105.22L 206.19 107.56L 206.82 109.93L 207.45 112.31L 208.05 114.71L 208.65 117.13L 209.24 119.56L 209.82 122.01L 210.39 124.47L 210.96 126.94L 211.53 129.42L 212.10 131.91L 212.68 134.41L 213.26 136.91L 213.84 139.42L 214.44 141.94L 215.04 144.46L 215.66 146.98L 216.30 149.51L 216.96 152.03L 217.63 154.55L 218.33 157.08L 219.06 159.59L 219.82 162.11L 220.60 164.62L 221.42 167.12L 222.28 169.62L 223.17 172.11L 224.11 174.58L 225.09 177.05L 226.12 179.50L 227.20 181.94L 228.34 184.36L 229.53 186.77L 230.78 189.15L 232.09 191.52L 233.47 193.86L 234.91 196.17L 236.42 198.46L 238.01 200.71L 239.67 202.93L 241.41 205.12L 243.23 207.26L 245.12 209.36L 246.02 210.30L 246.95 211.21L 247.89 212.10L 248.85 212.95L 249.83 213.78L 250.83 214.58L 251.84 215.36L 252.88 216.11L 253.92 216.84L 254.98 217.55L 256.05 218.23L 257.14 218.89L 258.24 219.53L 259.35 220.15L 260.47 220.75L 261.60 221.34L 262.74 221.90L 263.89 222.44L 265.05 222.97L 266.22 223.48L 267.40 223.97L 268.59 224.45L 269.78 224.91L 270.78 224.91L 270.78 224.91L 270.78 224.91L 270.78 224.91L 269.78 224.91L 270.99 225.36L 272.20 225.79L 273.41 226.21L 274.64 226.62L 275.87 227.01L 277.11 227.39L 278.35 227.75L 279.60 228.11L 280.85 228.45L 282.11 228.78L 283.37 229.10L 284.64 229.40L 285.91 229.70L 287.18 229.98L 288.46 230.26L 289.74 230.53L 291.02 230.78L 292.31 231.03L 293.59 231.26L 294.88 231.49L 296.17 231.71L 297.46 231.92L 298.75 232.12L 300.04 232.31L 301.33 232.50L 302.62 232.68L 303.90 232.85L 305.19 233.01L 306.48 233.16L 307.76 233.31L 309.04 233.45L 310.32 233.59L 311.59 233.71L 312.86 233.83L 314.12 233.95L 315.38 234.06L 316.64 234.16L 317.89 234.26L 319.14 234.35L 320.37 234.44L 321.61 234.52L 322.83 234.59L 324.05 234.67L 325.26 234.73L 326.46 234.80L 327.65 234.85L 328.84 234.91L 330.01 234.96L 331.17 235.00L 332.33 235.04L 333.47 235.08L 334.60 235.12L 335.72 235.15L 336.83 235.18L 337.93 235.20L 339.01 235.23L 340.08 235.25L 341.13 235.26L 342.17 235.28L 343.20 235.29L 344.21 235.31L 345.21 235.31L 346.19 235.32L 347.15 235.33L 348.09 235.33L 349.02 235.34L 349.93 235.34L 350.82 235.34L 351.69 235.34L 352.54 235.34L 353.37 235.34L 354.18 235.34L 354.97 235.34L 355.74 235.34L 356.48 235.34L 357.21 235.34L 357.90 235.34" fill="currentColor" />
</svg>
